<svg id="Capa_1" data-name="Capa 1" xmlns="http://www.w3.org/2000/svg" viewBox="0 0 60 40"><defs><style>.cls-1{fill:#fff;}</style></defs><path class="cls-1" d="M36.21,0a21.9,21.9,0,0,1,5,2.26L43,.3l1.34,3.88a31.26,31.26,0,0,1,4.58,3.69l-4-.26.37,6.23L42,7.74l-5.3.49,3.12-3.78A18.28,18.28,0,0,0,36.21,0"/><path class="cls-1" d="M52.63,19.17l-2.48.58-2-3.31a21.3,21.3,0,0,1,.16,3.79l-2.83,1,2.76,1.55-.37,3.8L50,23.8l2.28,1.89L51,22Z"/><polygon class="cls-1" points="52.38 12.45 50.7 12.93 52.82 13.82 53.59 16.26 53.91 14.82 55.3 15.97 54.17 13.5 54.59 11.85 53.14 12.23 51.38 10.42 52.38 12.45"/><path class="cls-1" d="M58.2,27.54l1.7-2.33-1.77-1a18.57,18.57,0,0,0-1-5.6,32.7,32.7,0,0,1-.48,5,8.57,8.57,0,0,0-3-.86,10,10,0,0,1,2.29,3.86,14.19,14.19,0,0,1-2,4.53l2.89-2a19,19,0,0,1,.76,3.72,18,18,0,0,0,.65-5.21"/><path class="cls-1" d="M54.62,36.25a5.32,5.32,0,0,1-1.77,1.51,3.91,3.91,0,0,1,1.44-.07,11.9,11.9,0,0,1-.6,2.25l1.37-2.31,1.16-.2-.41-1.5,1.09-2.41a9.72,9.72,0,0,1-1.37,1.7L54.81,34Z"/><path class="cls-1" d="M41.51,15.9l1,2.43L43,16.82a15,15,0,0,1,2.25,1.52l-2-2.34.24-1.27H42l-2.28-2,1.25,2-1.89.07Z"/><path class="cls-1" d="M7.53,40C3,40,.1,36.86.1,32.38S3,24.77,7.53,24.77c2.87,0,4.78,1,6,2.76l-2.33,1.23A4,4,0,0,0,7.53,27c-3.06,0-4.72,2.09-4.72,5.4s1.66,5.4,4.72,5.4A4.38,4.38,0,0,0,11.4,36l2.19,1.22A7,7,0,0,1,7.53,40"/><path class="cls-1" d="M23.3,39.77V33.5c0-2.23-1-3-2.71-3a2.52,2.52,0,0,0-2.71,2.83v6.48h-2.6V25.53l2.6-1.14v5.36a4.37,4.37,0,0,1,3.31-1.29c3.07,0,4.7,1.69,4.7,4.95v6.36Z"/><polygon class="cls-1" points="32.67 39.77 32.67 25.53 35.26 24.39 35.26 39.77 32.67 39.77"/><polygon class="cls-1" points="28.01 28.75 28.01 27.66 30.6 26.53 30.6 28.75 28.01 28.75"/><path class="cls-1" d="M42.46,30.42a2.85,2.85,0,0,0-3,2.79h6.13a2.81,2.81,0,0,0-3.11-2.79M48.11,35H39.39a3.19,3.19,0,0,0,3.32,3,5.17,5.17,0,0,0,2.86-.89l1.53,1.39A6.77,6.77,0,0,1,42.56,40a5.47,5.47,0,0,1-5.71-5.76c0-3.75,2.36-5.78,5.78-5.78A5.2,5.2,0,0,1,48.18,34c0,.4,0,.76-.07,1"/><rect class="cls-1" x="28.01" y="29.54" width="2.59" height="10.23"/></svg>