<svg id="Capa_1" data-name="Capa 1" xmlns="http://www.w3.org/2000/svg" viewBox="0 0 60 29.49"><defs><style>.cls-1{fill:#fff;}</style></defs><polygon class="cls-1" points="19.27 5.84 19.27 0.48 16.59 0.48 16.59 19.25 19.27 19.25 19.27 8.53 27.32 8.53 27.32 5.84 19.27 5.84"/><rect class="cls-1" x="40.73" y="0.48" width="2.68" height="18.77"/><rect class="cls-1" x="27.32" y="8.53" width="2.68" height="10.73"/><rect class="cls-1" x="3.18" y="0.48" width="8.04" height="2.68"/><rect class="cls-1" x="3.18" y="16.57" width="8.04" height="2.68"/><rect class="cls-1" x="0.5" y="3.16" width="2.68" height="13.41"/><rect class="cls-1" x="11.23" y="3.16" width="2.68" height="2.68"/><rect class="cls-1" x="11.23" y="13.89" width="2.68" height="2.68"/><polygon class="cls-1" points="35.36 8.53 32.68 8.53 32.68 11.21 35.36 11.21 35.36 19.25 38.04 19.25 38.04 5.84 35.36 5.84 35.36 8.53"/><rect class="cls-1" x="48.77" y="11.21" width="8.04" height="2.68"/><polygon class="cls-1" points="49 5.84 48.77 5.84 46.09 5.84 46.09 8.53 48.77 8.53 49 8.53 56.81 8.53 56.81 5.84 49 5.84"/><polygon class="cls-1" points="48.77 16.57 46.09 16.57 46.09 19.25 48.77 19.25 49 19.25 56.81 19.25 56.81 16.57 49 16.57 48.77 16.57"/><rect class="cls-1" x="56.82" y="8.53" width="2.68" height="2.68"/><rect class="cls-1" x="56.82" y="13.89" width="2.68" height="2.68"/><path class="cls-1" d="M6.14,25.37v2.21s-.22,0-.45,0a.52.52,0,0,1-.23,0v-.34a1.47,1.47,0,0,1-1.07.43.85.85,0,0,1-1-.85c0-.58.49-.9,1.3-.9a6.73,6.73,0,0,1,.72.06v-.42c0-.44-.24-.6-.74-.6a1.82,1.82,0,0,0-1.07.31.78.78,0,0,1-.11-.32c0-.24.43-.54,1.28-.54S6.14,24.83,6.14,25.37ZM4.63,27.22a1.27,1.27,0,0,0,.83-.33v-.55a3.7,3.7,0,0,0-.63-.05c-.53,0-.72.2-.72.47A.46.46,0,0,0,4.63,27.22Z"/><path class="cls-1" d="M12.28,23.07v4.51s-.22,0-.47,0a1.21,1.21,0,0,1-.21,0v-.45a1.2,1.2,0,0,1-1,.53c-.69,0-1.29-.52-1.29-1.6a1.49,1.49,0,0,1,1.51-1.65,1.94,1.94,0,0,1,.77.17V23.11a3.1,3.1,0,0,1,.62-.07S12.28,23.06,12.28,23.07Zm-.68,3.66V25.09a2,2,0,0,0-.66-.14A1,1,0,0,0,10,26c0,.68.36,1.08.83,1.08A1.06,1.06,0,0,0,11.6,26.73Z"/><path class="cls-1" d="M14,23.43c0,.27-.16.37-.43.37s-.33-.08-.33-.31.18-.34.44-.34S14,23.24,14,23.43Zm-.72,1.08a1.57,1.57,0,0,1,.44-.07c.18,0,.24.06.24.14v3a3.23,3.23,0,0,1-.48,0,.49.49,0,0,1-.2,0Z"/><path class="cls-1" d="M16.67,27.11c.69,0,1.2.29,1.2.82S17.24,29,16.16,29c-.89,0-1.42-.32-1.42-.82s.36-.63.73-.74a.31.31,0,0,1-.08-.24,1.1,1.1,0,0,1,.38-.69,1.05,1.05,0,0,1-.94-1.06c0-.69.55-1.05,1.39-1.05a1.89,1.89,0,0,1,.75.14,1.82,1.82,0,0,1,.91-.38,2.87,2.87,0,0,1,.08.52,2.06,2.06,0,0,0-.6.16.92.92,0,0,1,.18.59c0,.71-.58,1.09-1.33,1.11a.84.84,0,0,0-.23.55Zm.49.92c0-.3-.27-.42-.72-.43l-.6,0a.67.67,0,0,0-.41.55c0,.28.28.41.79.41S17.16,28.36,17.16,28Zm-1-1.91a.65.65,0,0,0,.73-.65c0-.43-.31-.61-.71-.61s-.72.18-.72.63A.62.62,0,0,0,16.17,26.12Z"/><path class="cls-1" d="M19.32,23.43c0,.27-.16.37-.44.37a.28.28,0,0,1-.32-.31c0-.25.18-.34.43-.34S19.32,23.24,19.32,23.43Zm-.73,1.08a1.57,1.57,0,0,1,.44-.07c.19,0,.25.06.25.14v3a3.23,3.23,0,0,1-.48,0,.58.58,0,0,1-.21,0Z"/><path class="cls-1" d="M22.24,27.2c0,.23-.38.45-.83.45a.87.87,0,0,1-.92-1V25H20v-.42s0-.06.06-.06h.41V24a1.38,1.38,0,0,1,.57-.17c.08,0,.11,0,.11.07v.67h1V25s0,.07-.06.07h-1v1.55a.42.42,0,0,0,.45.48.78.78,0,0,0,.52-.2A1.43,1.43,0,0,1,22.24,27.2Z"/><path class="cls-1" d="M25.46,25.37v2.21s-.22,0-.45,0a.52.52,0,0,1-.23,0v-.34a1.47,1.47,0,0,1-1.07.43.86.86,0,0,1-1-.85c0-.58.49-.9,1.3-.9a6.51,6.51,0,0,1,.72.06v-.42c0-.44-.24-.6-.74-.6a1.82,1.82,0,0,0-1.07.31.78.78,0,0,1-.11-.32c0-.24.43-.54,1.28-.54S25.46,24.83,25.46,25.37ZM24,27.22a1.27,1.27,0,0,0,.83-.33v-.55a3.62,3.62,0,0,0-.63-.05c-.53,0-.72.2-.72.47A.46.46,0,0,0,24,27.22Z"/><path class="cls-1" d="M27.1,27.58l-.43,0a.67.67,0,0,1-.25,0V23.1A2.48,2.48,0,0,1,27,23c.1,0,.14,0,.14.05Z"/><path class="cls-1" d="M32,25c-.54,0-.93.36-.93,1.08s.42,1.09.91,1.09a1.21,1.21,0,0,0,.82-.36.9.9,0,0,1,.13.34c0,.25-.45.56-1.05.56A1.48,1.48,0,0,1,30.32,26a1.49,1.49,0,0,1,1.6-1.61c.5,0,.87.16.87.39a1.07,1.07,0,0,1-.13.38A1.25,1.25,0,0,0,32,25Z"/><path class="cls-1" d="M36.47,26a1.52,1.52,0,0,1-1.57,1.68A1.48,1.48,0,0,1,33.39,26,1.5,1.5,0,0,1,35,24.41,1.43,1.43,0,0,1,36.47,26Zm-.7,0c0-.74-.38-1.06-.82-1.06s-.86.4-.86,1.09.38,1.11.84,1.11S35.77,26.77,35.77,26Z"/><path class="cls-1" d="M37.19,26.75V24.51s.35,0,.63,0c0,0,.06,0,.06,0v2c0,.44.19.59.53.59a1.12,1.12,0,0,0,.81-.41V24.51s.41,0,.63,0c0,0,0,0,0,0v3.07a4.26,4.26,0,0,1-.45,0,1,1,0,0,1-.22,0l0-.46a1.41,1.41,0,0,1-1.12.53A.85.85,0,0,1,37.19,26.75Z"/><path class="cls-1" d="M43.61,25.28v2.3s-.23,0-.52,0a.59.59,0,0,1-.17,0v-2c0-.43-.18-.58-.57-.58a.76.76,0,0,0-.81.6v2s-.22,0-.47,0a1.12,1.12,0,0,1-.22,0V24.49a1,1,0,0,1,.38-.06c.23,0,.31.09.31.24v.27a1.29,1.29,0,0,1,1.12-.53A.84.84,0,0,1,43.61,25.28Z"/><path class="cls-1" d="M46.55,27.2c0,.23-.38.45-.83.45a.87.87,0,0,1-.92-1V25h-.48v-.42a.05.05,0,0,1,.06-.06h.42V24a1.38,1.38,0,0,1,.56-.17c.09,0,.12,0,.12.07v.67h1V25s0,.07-.06.07h-1v1.55a.42.42,0,0,0,.44.48.74.74,0,0,0,.52-.2A1,1,0,0,1,46.55,27.2Z"/><path class="cls-1" d="M47.3,24.48a1.27,1.27,0,0,1,.39-.05c.2,0,.27.06.27.17s0,.32,0,.44a1.1,1.1,0,0,1,1.06-.6V25a.07.07,0,0,1-.08.07A.91.91,0,0,0,48,26v1.63l-.49,0-.19,0Z"/><path class="cls-1" d="M50,24.51,50.86,27l.76-2.49a2.49,2.49,0,0,1,.5,0,.61.61,0,0,1,.24,0l-1.17,3.11c-.33.93-.72,1.39-1.39,1.39-.43,0-.72-.19-.72-.42a.63.63,0,0,1,.1-.34.93.93,0,0,0,.56.2c.36,0,.56-.24.74-.77l-1.2-3.17s.33,0,.65,0C50,24.48,50,24.49,50,24.51Z"/><path class="cls-1" d="M55.26,27.33v.47H52.83v-.47Z"/><path class="cls-1" d="M56.89,27.33v.47H54.47v-.47Z"/></svg>