<?xml version="1.0" standalone="no"?>
<!DOCTYPE svg PUBLIC "-//W3C//DTD SVG 20010904//EN"
 "http://www.w3.org/TR/2001/REC-SVG-20010904/DTD/svg10.dtd">
<svg version="1.0" xmlns="http://www.w3.org/2000/svg"
 width="260.000000pt" height="260.000000pt" viewBox="0 0 260.000000 260.000000"
 preserveAspectRatio="xMidYMid meet">
<metadata>
Created by potrace 1.11, written by Peter Selinger 2001-2013
</metadata>
<g transform="translate(0.000000,260.000000) scale(0.100000,-0.100000)"
fill="#000000" stroke="none">
<path d="M1162 2435 c-12 -14 -31 -26 -42 -26 -21 -2 -38 -5 -42 -9 -2 -1 -14
-3 -28 -5 -46 -6 -120 -28 -120 -36 0 -4 -8 -6 -17 -5 -10 2 -20 -1 -23 -5 -3
-5 -16 -10 -28 -12 -12 -2 -28 -9 -34 -15 -7 -7 -20 -12 -30 -12 -10 0 -18 -4
-18 -10 0 -5 -5 -10 -10 -10 -10 0 -160 -88 -170 -99 -3 -3 -27 -24 -55 -46
-27 -22 -72 -64 -100 -94 -27 -30 -57 -62 -65 -70 -51 -55 -170 -267 -170
-303 0 -8 -5 -19 -11 -25 -6 -6 -12 -19 -14 -29 -2 -11 -4 -19 -5 -19 -1 0 -3
-9 -5 -19 -2 -11 -7 -31 -11 -45 -4 -14 -6 -32 -5 -40 1 -7 -1 -11 -6 -8 -10
6 -15 -61 -17 -223 -1 -138 7 -213 33 -299 6 -19 8 -38 4 -44 -4 -6 -1 -7 7
-2 10 6 12 3 8 -11 -3 -11 1 -26 9 -33 8 -7 12 -22 10 -32 -3 -11 -2 -17 3
-14 4 2 16 -16 26 -40 10 -25 21 -45 24 -45 4 0 7 -6 7 -13 0 -7 19 -42 43
-78 49 -72 51 -73 103 -130 20 -23 37 -46 37 -51 0 -5 4 -7 8 -4 5 3 15 -6 22
-19 7 -13 17 -22 22 -19 4 3 8 1 8 -3 0 -29 269 -199 340 -215 8 -2 18 -7 22
-12 3 -5 15 -11 25 -12 10 -1 46 -9 80 -18 35 -10 72 -19 83 -21 11 -2 25 -7
30 -10 6 -3 10 0 10 7 0 10 2 10 8 1 10 -16 302 -17 302 -1 0 6 7 5 17 -3 11
-10 14 -10 9 -2 -4 7 -4 13 1 14 4 0 26 2 48 4 22 1 54 8 70 15 32 13 63 21
83 22 6 1 12 6 12 11 0 6 3 8 6 4 4 -3 21 1 38 10 17 10 37 16 44 15 6 -2 12
1 12 7 0 8 38 26 63 29 4 1 13 6 20 12 6 6 49 35 94 65 74 50 172 138 228 206
45 54 96 129 88 129 -4 0 -3 4 3 8 23 15 114 218 114 254 0 10 4 18 8 18 5 0
9 6 9 13 1 6 4 30 8 52 4 22 7 46 7 53 1 6 4 12 7 12 3 0 6 44 5 98 0 80 3
101 18 118 28 32 30 61 5 87 -25 26 -57 41 -57 27 0 -6 -6 -10 -12 -10 -7 0
-21 -11 -30 -24 -16 -22 -16 -25 4 -62 14 -27 21 -59 22 -102 1 -34 -1 -62 -4
-62 -3 0 -5 -16 -5 -35 1 -19 -2 -32 -7 -29 -4 3 -8 0 -8 -5 0 -6 5 -11 11
-11 8 0 8 -5 -1 -15 -7 -8 -10 -15 -7 -15 3 0 1 -15 -4 -33 -6 -17 -12 -43
-15 -56 -3 -13 -10 -34 -16 -45 -6 -12 -10 -21 -9 -21 2 0 -5 -20 -15 -45 -10
-25 -17 -47 -15 -49 1 -2 -3 -7 -10 -12 -7 -4 -14 -16 -15 -26 -2 -9 -8 -19
-13 -21 -6 -2 -11 -8 -11 -13 0 -11 -67 -111 -99 -149 -51 -58 -83 -90 -92
-90 -6 0 -7 -4 -4 -10 3 -5 2 -10 -3 -10 -5 0 -24 -15 -43 -32 -19 -18 -35
-31 -37 -30 -2 2 -17 -8 -33 -22 -16 -14 -29 -24 -29 -20 0 3 -13 -4 -30 -16
-16 -12 -30 -18 -30 -15 0 4 -7 0 -15 -8 -15 -15 -155 -77 -175 -77 -6 0 -8
-4 -5 -10 3 -5 0 -7 -8 -4 -8 3 -18 0 -22 -6 -6 -9 -10 -9 -16 1 -7 11 -9 11
-9 1 0 -7 -4 -10 -10 -7 -5 3 -10 2 -10 -2 0 -5 -10 -9 -22 -10 -13 -1 -34 -4
-48 -8 -14 -3 -41 -8 -60 -10 -19 -2 -35 -4 -35 -5 0 -1 -8 -3 -17 -5 -10 -2
-18 2 -18 8 0 8 -3 8 -8 2 -10 -15 -104 -16 -121 -2 -12 9 -13 9 -7 0 9 -16 1
-16 -24 -3 -13 7 -21 7 -25 0 -4 -6 -12 -7 -18 -3 -6 4 -23 7 -37 8 -14 1 -31
5 -38 9 -7 4 -12 2 -12 -5 0 -8 -5 -7 -17 3 -10 8 -28 14 -40 13 -13 -1 -23 2
-23 7 0 4 -3 7 -7 7 -5 -1 -10 -1 -13 1 -3 1 -16 4 -30 6 -13 2 -27 8 -30 12
-3 4 -14 9 -25 10 -11 2 -24 8 -30 13 -5 5 -17 9 -26 9 -10 0 -19 3 -21 8 -1
4 -24 18 -49 30 -60 31 -180 122 -241 184 -47 48 -158 183 -158 192 0 3 -13
28 -30 56 -16 27 -26 50 -22 50 4 0 1 4 -6 9 -7 4 -14 18 -15 29 -1 12 -4 22
-7 22 -3 0 -12 21 -19 48 -8 26 -17 52 -21 57 -4 6 -10 30 -14 55 -3 25 -9 61
-14 80 -5 19 -7 98 -5 175 4 160 5 175 13 175 3 0 7 12 8 28 3 33 7 52 15 72
4 8 8 24 10 35 11 57 122 279 149 297 7 4 9 8 4 8 -5 0 3 11 18 25 15 14 25
25 21 25 -3 0 8 14 25 31 16 18 30 37 30 42 0 6 2 8 5 5 3 -3 24 12 45 33 22
22 44 39 50 39 5 0 10 4 10 9 0 5 35 32 78 60 42 28 82 55 88 60 7 5 15 7 18
4 3 -4 6 -1 6 6 0 7 4 10 8 7 5 -3 26 7 47 21 21 14 34 19 29 12 -5 -9 1 -8
19 4 15 9 27 14 27 10 0 -5 4 -3 8 4 4 6 19 13 32 15 14 2 30 6 35 9 6 4 24
10 40 14 87 23 126 26 149 9 28 -19 53 -18 73 5 9 11 20 18 24 15 18 -11 -5
61 -24 77 -31 25 -60 23 -85 -6z"/>
<path d="M1121 2137 c-4 -4 -24 -9 -44 -10 -19 -1 -32 -6 -29 -11 3 -5 -2 -7
-10 -3 -9 3 -19 2 -24 -2 -5 -4 -31 -16 -59 -26 -83 -31 -199 -103 -261 -163
-13 -13 -24 -20 -24 -17 0 4 -12 -8 -27 -27 -16 -18 -31 -34 -35 -36 -5 -2 -8
-10 -8 -17 0 -7 -3 -15 -8 -17 -13 -5 -72 -91 -72 -104 0 -7 -3 -14 -7 -16
-12 -5 -53 -97 -53 -118 0 -11 -4 -20 -9 -20 -5 0 -11 -9 -14 -20 -3 -11 0
-20 5 -20 7 0 7 -4 0 -12 -10 -14 -25 -70 -26 -103 -1 -11 -5 -26 -9 -32 -5
-8 -4 -13 2 -13 6 0 4 -14 -6 -35 -9 -19 -20 -32 -25 -29 -4 3 -8 0 -8 -5 0
-6 5 -11 10 -11 6 0 10 -6 10 -13 0 -16 27 -41 52 -50 21 -7 68 35 68 63 0 11
-9 29 -19 39 -26 26 -27 33 -16 111 4 36 7 68 7 73 -1 4 3 7 9 7 5 0 7 5 4 10
-3 6 -2 10 3 10 5 0 7 11 4 25 -3 18 0 25 10 25 10 0 14 8 13 25 -2 14 0 25 4
25 4 0 15 18 25 40 10 22 22 40 27 40 5 0 8 4 7 8 -5 13 94 142 103 136 5 -3
9 0 9 5 0 6 9 20 20 31 11 11 20 18 20 14 0 -3 11 7 25 22 14 15 25 23 25 18
0 -5 4 -4 8 1 10 14 92 67 92 59 0 -3 7 2 16 11 9 9 23 14 30 11 8 -3 14 -2
14 2 0 12 77 42 118 44 6 1 12 4 12 7 0 6 33 12 70 13 8 1 21 5 28 11 7 6 12
6 12 0 0 -5 7 -10 15 -10 8 0 12 4 9 8 -4 8 172 4 221 -5 66 -11 95 -19 95
-28 0 -5 4 -7 9 -4 12 8 71 -14 71 -26 0 -5 4 -7 9 -3 10 5 83 -33 89 -47 2
-4 9 -8 15 -8 13 0 51 -29 98 -72 16 -16 34 -28 39 -28 6 0 10 -7 10 -15 0 -8
4 -15 9 -15 30 0 201 -286 186 -311 -4 -5 -2 -9 3 -9 9 0 11 -11 14 -62 1 -16
5 -28 8 -28 6 0 6 -8 13 -130 2 -47 1 -89 -2 -95 -6 -11 -8 -21 -16 -84 -3
-25 -8 -47 -13 -50 -4 -3 -7 -15 -8 -26 -1 -38 -75 -191 -111 -229 -12 -13
-19 -27 -16 -30 4 -3 1 -6 -5 -6 -7 0 -12 -7 -12 -17 0 -9 -3 -13 -6 -10 -4 4
-20 -10 -35 -30 -16 -20 -29 -32 -29 -27 0 5 -7 -2 -16 -14 -8 -12 -22 -22
-31 -22 -9 0 -13 -3 -10 -6 4 -4 -15 -21 -41 -37 -26 -17 -50 -36 -54 -42 -4
-5 -8 -6 -8 -2 0 5 -13 -1 -30 -13 -16 -12 -30 -18 -30 -14 0 4 -8 0 -18 -9
-10 -10 -31 -18 -45 -19 -15 -1 -27 -6 -27 -11 0 -4 -4 -5 -10 -2 -5 3 -10 1
-10 -5 0 -6 -4 -9 -9 -5 -5 3 -12 1 -16 -4 -3 -5 -13 -10 -23 -9 -9 0 -28 -3
-42 -6 -72 -17 -78 -17 -94 -1 -10 11 -24 14 -37 10 -16 -6 -20 -4 -14 6 9 14
-34 -18 -47 -36 -12 -16 -9 -42 7 -58 8 -8 12 -17 9 -20 -3 -2 9 -7 27 -9 23
-4 39 1 60 19 16 13 41 26 56 28 15 2 28 4 28 5 0 1 11 4 25 6 48 7 59 10 66
17 4 4 13 7 20 7 10 0 35 9 74 26 3 1 15 5 28 9 12 4 22 11 22 15 0 7 22 16
44 18 5 0 12 4 15 9 10 13 65 48 74 45 4 -1 7 5 7 14 0 8 4 13 8 10 8 -5 103
83 148 136 41 49 73 101 67 111 -3 6 -2 7 4 4 8 -5 30 36 79 148 7 16 10 33 8
37 -3 4 -1 8 5 8 5 0 9 13 9 29 -1 15 3 34 8 42 14 22 15 36 16 187 0 79 -4
148 -10 155 -5 6 -8 20 -7 30 2 9 -1 17 -6 17 -6 0 -8 4 -4 9 3 5 -6 35 -19
65 -14 31 -23 56 -21 56 3 0 -9 23 -25 50 -17 28 -30 55 -30 60 0 6 -3 10 -7
10 -5 0 -21 20 -37 45 -15 25 -38 52 -49 60 -12 8 -18 15 -14 15 13 0 -77 83
-120 110 -23 15 -40 30 -36 34 3 3 -1 6 -10 6 -8 0 -23 7 -31 16 -9 8 -20 12
-26 9 -5 -3 -10 -2 -10 3 0 10 -45 33 -75 39 -10 2 -22 9 -27 15 -4 7 -10 9
-14 5 -4 -4 -17 -1 -28 6 -12 7 -37 14 -56 16 -19 2 -37 7 -40 11 -7 11 -318
8 -329 -3z"/>
<path d="M1209 1883 c0 -11 -3 -13 -6 -5 -2 6 -8 10 -12 8 -8 -5 -58 -17 -78
-18 -7 -1 -13 -5 -13 -10 0 -5 -4 -6 -10 -3 -10 6 -133 -52 -171 -82 -50 -38
-147 -144 -159 -173 -7 -16 -16 -30 -20 -30 -4 0 -10 -10 -13 -22 -3 -13 -13
-45 -24 -73 -10 -27 -18 -57 -18 -65 1 -8 -2 -19 -6 -25 -9 -13 -8 -197 1
-210 4 -5 10 -26 13 -45 3 -19 10 -48 17 -65 6 -16 11 -32 11 -35 0 -3 6 -12
13 -20 6 -8 18 -28 26 -44 15 -29 149 -176 161 -176 4 0 32 -16 64 -35 98 -59
178 -79 305 -77 118 1 138 5 210 34 14 5 25 9 25 7 0 -1 19 10 42 24 24 15 47
27 52 27 5 0 11 6 14 14 4 9 19 13 41 12 19 -1 33 0 31 2 -2 2 5 12 14 21 10
10 17 29 15 42 -1 13 -3 27 -3 31 -1 4 -14 14 -29 22 -42 22 -88 -8 -94 -60
-2 -18 -11 -33 -25 -39 -13 -5 -23 -13 -23 -18 0 -4 -4 -5 -10 -2 -5 3 -10 2
-10 -3 0 -9 -31 -23 -55 -26 -5 -1 -12 -4 -15 -8 -3 -4 -17 -9 -30 -12 -14 -3
-38 -8 -55 -12 -52 -12 -169 -10 -208 4 -21 7 -49 13 -63 14 -13 1 -24 6 -24
11 0 4 -4 5 -10 2 -5 -3 -10 -1 -10 4 0 6 -3 11 -7 10 -13 -2 -53 13 -53 20 0
3 -13 12 -29 19 -71 31 -211 206 -226 281 -2 12 -7 26 -10 31 -16 26 -23 173
-12 255 3 22 6 44 6 48 1 5 5 6 9 3 5 -3 8 5 7 17 -3 24 46 124 76 156 11 12
17 21 15 21 -3 0 13 20 37 44 23 24 44 42 46 40 2 -2 9 2 17 9 53 47 151 91
234 104 37 5 164 5 190 0 39 -9 76 -20 85 -26 6 -3 19 -7 30 -8 11 -2 22 -8
23 -13 2 -6 10 -10 17 -10 29 0 104 -55 105 -76 0 -23 32 -57 57 -60 9 -2 29
6 44 16 20 15 26 27 24 50 -3 38 -43 74 -64 57 -8 -7 -17 -10 -20 -8 -49 35
-110 69 -115 64 -3 -4 -6 -1 -6 5 0 7 -9 12 -20 12 -11 0 -20 5 -20 11 0 5 -4
7 -10 4 -5 -3 -10 -1 -10 5 0 6 -4 9 -9 6 -5 -4 -22 -1 -38 5 -37 14 -69 20
-120 22 -23 1 -39 5 -37 9 2 4 -10 3 -28 -3 -41 -11 -41 -11 -33 1 3 6 1 10
-4 10 -6 0 -11 -8 -12 -17z"/>
</g>
</svg>
